<svg xmlns="http://www.w3.org/2000/svg" viewBox="0 0 324.68 37.46"><defs><style>.cls-1{fill:#1d1d1b;}</style></defs><g id="Calque_2" data-name="Calque 2"><g id="Calque_1-2" data-name="Calque 1"><path class="cls-1" d="M0,17.28V.48H5.14A6.64,6.64,0,0,1,9.52,1.82,4.56,4.56,0,0,1,11.11,5.5,4.4,4.4,0,0,1,8.4,9.84l5.26,7.44h-4L5.16,10.49H3.41v6.79Zm5.33-14H3.41V7.66H5.33A2.31,2.31,0,0,0,7,7.07a2.16,2.16,0,0,0,.6-1.62A2.08,2.08,0,0,0,7,3.9,2.33,2.33,0,0,0,5.33,3.31Z"/><path class="cls-1" d="M16.06,17.28V.48h9.79V3.31H19.46v4h5.43v2.83H19.46v4.32h6.39v2.83Z"/><path class="cls-1" d="M30.05,17.28V.48h5.54A6.58,6.58,0,0,1,40,1.82,4.56,4.56,0,0,1,41.54,5.5,4.52,4.52,0,0,1,40,9.16a6.66,6.66,0,0,1-4.36,1.33H33.46v6.79Zm5.69-14H33.46V7.66h2.28a2.35,2.35,0,0,0,1.69-.59A2.16,2.16,0,0,0,38,5.45a2,2,0,0,0-.62-1.55A2.37,2.37,0,0,0,35.74,3.31Z"/><path class="cls-1" d="M44.59,17.28V.48h9.79V3.31H48v4h5.42v2.83H48v4.32h6.38v2.83Z"/><path class="cls-1" d="M58.58,17.28V.48h5.14A6.64,6.64,0,0,1,68.1,1.82,4.56,4.56,0,0,1,69.69,5.5,4.4,4.4,0,0,1,67,9.84l5.26,7.44h-4l-4.49-6.79H62v6.79Zm5.33-14H62V7.66h1.92a2.31,2.31,0,0,0,1.68-.59,2.16,2.16,0,0,0,.6-1.62,2,2,0,0,0-.61-1.55A2.33,2.33,0,0,0,63.91,3.31Z"/><path class="cls-1" d="M74.64,17.28V.48h9.79V3.31H78.05v4h5.42v2.83H78.05v4.32h6.38v2.83Z"/><path class="cls-1" d="M99.38,12.48a4.74,4.74,0,0,1-1.73,3.83,6.57,6.57,0,0,1-4.39,1.45A7.07,7.07,0,0,1,86.69,14l2.83-1.75q1.33,2.65,3.72,2.66a3,3,0,0,0,2.05-.7,2.3,2.3,0,0,0,.8-1.84,2.26,2.26,0,0,0-.81-1.83,3.3,3.3,0,0,0-2.16-.67H90.36V7H92.9a2.74,2.74,0,0,0,1.77-.56,1.9,1.9,0,0,0,.68-1.53,1.78,1.78,0,0,0-.64-1.46,2.49,2.49,0,0,0-1.64-.53A3.31,3.31,0,0,0,90.12,4.8L87.48,3.17A6.39,6.39,0,0,1,93.31,0a5.82,5.82,0,0,1,3.85,1.24,4,4,0,0,1,1.5,3.27,4.28,4.28,0,0,1-1.92,3.75A4.43,4.43,0,0,1,99.38,12.48Z"/><path class="cls-1" d="M0,34.71V27H1.85a2.53,2.53,0,0,1,1.74.57,2,2,0,0,1,.63,1.52,2,2,0,0,1-.34,1.18,2,2,0,0,1-1,.73l2.51,3.7H4.58L2.22,31.15a2.77,2.77,0,0,1-.37,0H.7v3.54Zm1.87-7.08H.7v2.93H1.87a1.71,1.71,0,0,0,1.19-.39,1.4,1.4,0,0,0,.43-1.09A1.36,1.36,0,0,0,3.06,28,1.71,1.71,0,0,0,1.87,27.63Z"/><path class="cls-1" d="M6.86,34.71V27h3.92v.62H7.57v2.86h2.77v.61H7.57v3h3.21v.61Z"/><path class="cls-1" d="M12.9,34.06a3.2,3.2,0,0,1,0-4.23A2.64,2.64,0,0,1,15,29a2.57,2.57,0,0,1,2.12,1v-3.5h.65v8.25h-.65v-.79a2.56,2.56,0,0,1-2.12,1A2.68,2.68,0,0,1,12.9,34.06Zm.51-3.81a2.58,2.58,0,0,0,0,3.38,2.1,2.1,0,0,0,1.6.69,2.43,2.43,0,0,0,1.2-.3,2.24,2.24,0,0,0,.87-.86V30.72A2.27,2.27,0,0,0,15,29.57,2.12,2.12,0,0,0,13.41,30.25Z"/><path class="cls-1" d="M24.69,33.8a2.69,2.69,0,0,1-2.33,1.14,2.86,2.86,0,0,1-2.16-.88,3,3,0,0,1-.83-2.12,3.07,3.07,0,0,1,.77-2.14,2.54,2.54,0,0,1,2-.85,2.37,2.37,0,0,1,1.76.68,2.32,2.32,0,0,1,.67,1.69,2,2,0,0,1,0,.46H20v.13a2.44,2.44,0,0,0,.65,1.74,2.19,2.19,0,0,0,1.67.69,2.13,2.13,0,0,0,1.84-.93Zm-2.57-4.28A2,2,0,0,0,20.8,30a2.15,2.15,0,0,0-.69,1.28H23.9A1.76,1.76,0,0,0,23.4,30,1.73,1.73,0,0,0,22.12,29.52Zm.32-1.23H21.8L23,26.46h.76Z"/><path class="cls-1" d="M26.3,37.42V29.17H27V30a2.59,2.59,0,0,1,2.12-1,2.65,2.65,0,0,1,2.07.88,3.2,3.2,0,0,1,0,4.23,2.68,2.68,0,0,1-2.07.88,2.57,2.57,0,0,1-2.12-1v3.5ZM29,29.57a2.55,2.55,0,0,0-1.19.29,2.25,2.25,0,0,0-.88.85v2.46A2.3,2.3,0,0,0,29,34.32a2.05,2.05,0,0,0,1.6-.69,2.58,2.58,0,0,0,0-3.38A2.08,2.08,0,0,0,29,29.57Z"/><path class="cls-1" d="M33.59,34.71V26.46h.65v8.25Z"/><path class="cls-1" d="M36.74,29.84a3,3,0,0,1,4.27,0,3.06,3.06,0,0,1,0,4.21,3,3,0,0,1-4.27,0,3.06,3.06,0,0,1,0-4.21Zm2.14,4.48a2.14,2.14,0,0,0,1.63-.71,2.47,2.47,0,0,0,0-3.34,2.13,2.13,0,0,0-1.63-.7,2.16,2.16,0,0,0-1.65.7,2.37,2.37,0,0,0-.66,1.67,2.33,2.33,0,0,0,.66,1.67A2.17,2.17,0,0,0,38.88,34.32Z"/><path class="cls-1" d="M44.19,27.28a.52.52,0,0,1-.36.14.52.52,0,0,1-.35-.14.47.47,0,0,1-.15-.35.43.43,0,0,1,.15-.34.49.49,0,0,1,.35-.15.49.49,0,0,1,.36.15.46.46,0,0,1,.14.34A.5.5,0,0,1,44.19,27.28Zm-.69,7.43V29.17h.65v5.54Z"/><path class="cls-1" d="M51.14,33.8a2.71,2.71,0,0,1-2.33,1.14,2.89,2.89,0,0,1-2.17-.88,3,3,0,0,1-.83-2.12,3.07,3.07,0,0,1,.77-2.14,2.54,2.54,0,0,1,2-.85,2.35,2.35,0,0,1,1.75.68A2.32,2.32,0,0,1,51,31.32a1.89,1.89,0,0,1,0,.46H46.49v.13a2.43,2.43,0,0,0,.64,1.74,2.21,2.21,0,0,0,1.68.69,2.12,2.12,0,0,0,1.83-.93Zm-2.58-4.28a2,2,0,0,0-1.32.46,2.15,2.15,0,0,0-.69,1.28h3.8A1.81,1.81,0,0,0,49.84,30,1.71,1.71,0,0,0,48.56,29.52Z"/><path class="cls-1" d="M52.74,34.71V29.17h.65v.74a2.27,2.27,0,0,1,1.87-1,2.17,2.17,0,0,1,1.15.3,1.77,1.77,0,0,1,.72.89A2.37,2.37,0,0,1,59.19,29a2,2,0,0,1,1.5.59,2.32,2.32,0,0,1,.57,1.67v3.5h-.64V31.23A1.74,1.74,0,0,0,60.21,30a1.47,1.47,0,0,0-1.11-.43,2,2,0,0,0-1.8,1.18,3.44,3.44,0,0,1,0,.46v3.5h-.65V31.23a1.74,1.74,0,0,0-.4-1.23,1.45,1.45,0,0,0-1.1-.43,2,2,0,0,0-1.79,1.16v4Z"/><path class="cls-1" d="M68.12,33.8a2.71,2.71,0,0,1-2.33,1.14,2.85,2.85,0,0,1-2.16-.88,2.94,2.94,0,0,1-.83-2.12,3.06,3.06,0,0,1,.76-2.14,2.56,2.56,0,0,1,2-.85,2.37,2.37,0,0,1,1.76.68A2.32,2.32,0,0,1,68,31.32a2,2,0,0,1,0,.46H63.47v.13a2.44,2.44,0,0,0,.65,1.74,2.19,2.19,0,0,0,1.67.69,2.14,2.14,0,0,0,1.84-.93Zm-2.57-4.28a2,2,0,0,0-1.32.46,2.15,2.15,0,0,0-.69,1.28h3.79A1.73,1.73,0,0,0,66.82,30,1.69,1.69,0,0,0,65.55,29.52Z"/><path class="cls-1" d="M69.73,34.71V29.17h.65v.76a2.43,2.43,0,0,1,2-1,2.12,2.12,0,0,1,1.58.62,2.43,2.43,0,0,1,.6,1.75v3.39h-.65V31.34A1.84,1.84,0,0,0,73.45,30a1.56,1.56,0,0,0-1.18-.46,2.14,2.14,0,0,0-1.89,1.16v4Z"/><path class="cls-1" d="M76.88,33V29.75h-1v-.58h1V27.78h.66v1.39h2.08v.58H77.54V33a1.25,1.25,0,0,0,.32,1,1.44,1.44,0,0,0,.94.27,2.49,2.49,0,0,0,.82-.12v.59a2.63,2.63,0,0,1-.88.13A1.64,1.64,0,0,1,76.88,33Z"/><path class="cls-1" d="M88.93,33.8a2.7,2.7,0,0,1-2.33,1.14,2.85,2.85,0,0,1-2.16-.88,3,3,0,0,1-.83-2.12,3.06,3.06,0,0,1,.76-2.14,2.56,2.56,0,0,1,2-.85,2.37,2.37,0,0,1,1.76.68,2.32,2.32,0,0,1,.67,1.69,2,2,0,0,1,0,.46H84.28v.13a2.44,2.44,0,0,0,.65,1.74,2.19,2.19,0,0,0,1.67.69,2.13,2.13,0,0,0,1.84-.93Zm-2.57-4.28A2,2,0,0,0,85,30a2.15,2.15,0,0,0-.69,1.28h3.79a1.76,1.76,0,0,0-.5-1.24A1.73,1.73,0,0,0,86.36,29.52Z"/><path class="cls-1" d="M90.54,34.71V29.17h.65v.76a2.43,2.43,0,0,1,2-1,2.12,2.12,0,0,1,1.58.62,2.43,2.43,0,0,1,.6,1.75v3.39H94.7V31.34A1.84,1.84,0,0,0,94.26,30a1.56,1.56,0,0,0-1.18-.46,2.14,2.14,0,0,0-1.89,1.16v4Z"/><path class="cls-1" d="M97.69,33V29.75h-1v-.58h1V27.78h.66v1.39h2.08v.58H98.35V33a1.25,1.25,0,0,0,.32,1,1.44,1.44,0,0,0,.94.27,2.49,2.49,0,0,0,.82-.12v.59a2.59,2.59,0,0,1-.88.13A1.64,1.64,0,0,1,97.69,33Z"/><path class="cls-1" d="M102,34.71V29.17h.65V30a2.12,2.12,0,0,1,1.71-.9,1.49,1.49,0,0,1,.47.07v.62a2.06,2.06,0,0,0-.51-.07,1.91,1.91,0,0,0-1.67,1.06v4Z"/><path class="cls-1" d="M110.69,33.8a2.71,2.71,0,0,1-2.33,1.14,2.85,2.85,0,0,1-2.16-.88,2.94,2.94,0,0,1-.83-2.12,3.06,3.06,0,0,1,.76-2.14,2.56,2.56,0,0,1,2-.85,2.39,2.39,0,0,1,1.76.68,2.32,2.32,0,0,1,.67,1.69,2.71,2.71,0,0,1,0,.46H106v.13a2.39,2.39,0,0,0,.65,1.74,2.19,2.19,0,0,0,1.67.69,2.14,2.14,0,0,0,1.84-.93Zm-2.57-4.28a2,2,0,0,0-1.32.46,2.21,2.21,0,0,0-.7,1.28h3.8a1.77,1.77,0,0,0-.51-1.24A1.69,1.69,0,0,0,108.12,29.52Z"/><path class="cls-1" d="M115.45,34.71V27h2.07a2.51,2.51,0,0,1,1.73.57,2,2,0,0,1,.64,1.52,1.94,1.94,0,0,1-.64,1.51,2.55,2.55,0,0,1-1.73.56h-1.36v3.54Zm2.08-7.08h-1.37v2.93h1.37a1.69,1.69,0,0,0,1.19-.39,1.37,1.37,0,0,0,.43-1.09,1.33,1.33,0,0,0-.43-1.06A1.69,1.69,0,0,0,117.53,27.63Z"/><path class="cls-1" d="M121.28,34.71V29.17h.65V30a2.14,2.14,0,0,1,1.72-.9,1.43,1.43,0,0,1,.46.07v.62a2,2,0,0,0-.51-.07,1.92,1.92,0,0,0-1.67,1.06v4Z"/><path class="cls-1" d="M125.52,29.84a3,3,0,0,1,4.27,0,3.06,3.06,0,0,1,0,4.21,3,3,0,0,1-4.27,0,3.06,3.06,0,0,1,0-4.21Zm2.14,4.48a2.14,2.14,0,0,0,1.63-.71,2.47,2.47,0,0,0,0-3.34,2.13,2.13,0,0,0-1.63-.7,2.16,2.16,0,0,0-1.65.7,2.37,2.37,0,0,0-.66,1.67,2.33,2.33,0,0,0,.66,1.67A2.17,2.17,0,0,0,127.66,34.32Z"/><path class="cls-1" d="M131.57,35.74a1.74,1.74,0,0,1,.86-1.44.91.91,0,0,1-.41-.78,1.2,1.2,0,0,1,.69-1.06,1.82,1.82,0,0,1-.78-1.55,1.91,1.91,0,0,1,.58-1.39,2.06,2.06,0,0,1,1.52-.58,2.47,2.47,0,0,1,1,.23h2.08v.57h-1.39a1.92,1.92,0,0,1,.39,1.17,1.88,1.88,0,0,1-.59,1.39,2.08,2.08,0,0,1-1.53.58,2.55,2.55,0,0,1-.89-.17.82.82,0,0,0-.5.71c0,.3.17.45.52.45h1.7a2.46,2.46,0,0,1,1.6.44,1.48,1.48,0,0,1,.53,1.21,1.68,1.68,0,0,1-.77,1.4,3.45,3.45,0,0,1-2,.54A3.55,3.55,0,0,1,132.3,37,1.42,1.42,0,0,1,131.57,35.74Zm.65-.06a1,1,0,0,0,.55.89,2.74,2.74,0,0,0,1.44.33,2.94,2.94,0,0,0,1.55-.36,1.11,1.11,0,0,0,.58-1c0-.73-.5-1.09-1.5-1.09H133A1.49,1.49,0,0,0,132.22,35.68ZM134,32.33a1.37,1.37,0,0,0,1.46-1.42,1.4,1.4,0,0,0-.39-1,1.61,1.61,0,0,0-2.15,0,1.4,1.4,0,0,0-.39,1A1.37,1.37,0,0,0,134,32.33Z"/><path class="cls-1" d="M138.37,34.71V29.17H139V30a2.11,2.11,0,0,1,1.71-.9,1.39,1.39,0,0,1,.46.07v.62a2,2,0,0,0-.5-.07A1.91,1.91,0,0,0,139,30.74v4Z"/><path class="cls-1" d="M143.9,34.87a2,2,0,0,1-1.3-.41,1.33,1.33,0,0,1-.49-1.09,1.35,1.35,0,0,1,.46-1,2.58,2.58,0,0,1,1.34-.56l2-.33v-.52a1.29,1.29,0,0,0-.41-1,1.62,1.62,0,0,0-1.09-.37,2,2,0,0,0-1.67.85l-.49-.38A2.53,2.53,0,0,1,144.42,29a2.2,2.2,0,0,1,1.54.53,1.86,1.86,0,0,1,.57,1.44v3.79h-.64v-.8A2.36,2.36,0,0,1,143.9,34.87Zm-1.13-1.51a.82.82,0,0,0,.33.68,1.34,1.34,0,0,0,.88.27,2.07,2.07,0,0,0,1.91-1.1V31.94l-1.84.31C143.2,32.4,142.77,32.77,142.77,33.36Z"/><path class="cls-1" d="M148.61,34.71V29.17h.65v.74a2.26,2.26,0,0,1,1.87-1,2.16,2.16,0,0,1,1.14.3,1.84,1.84,0,0,1,.73.89A2.34,2.34,0,0,1,155.05,29a2,2,0,0,1,1.5.59,2.32,2.32,0,0,1,.57,1.67v3.5h-.64V31.23a1.69,1.69,0,0,0-.41-1.23,1.43,1.43,0,0,0-1.1-.43,2,2,0,0,0-1.81,1.18,3.44,3.44,0,0,1,0,.46v3.5h-.64V31.23a1.74,1.74,0,0,0-.41-1.23,1.43,1.43,0,0,0-1.1-.43,1.93,1.93,0,0,0-1.78,1.16v4Z"/><path class="cls-1" d="M159.18,34.71V29.17h.65v.74a2.26,2.26,0,0,1,1.87-1,2.16,2.16,0,0,1,1.14.3,1.84,1.84,0,0,1,.73.89A2.35,2.35,0,0,1,165.62,29a2,2,0,0,1,1.51.59,2.36,2.36,0,0,1,.56,1.67v3.5h-.64V31.23a1.69,1.69,0,0,0-.41-1.23,1.43,1.43,0,0,0-1.1-.43,2,2,0,0,0-1.81,1.18,3.42,3.42,0,0,1,0,.46v3.5h-.65V31.23a1.74,1.74,0,0,0-.41-1.23,1.43,1.43,0,0,0-1.1-.43,1.93,1.93,0,0,0-1.78,1.16v4Z"/><path class="cls-1" d="M174.56,33.8a2.71,2.71,0,0,1-2.33,1.14,2.89,2.89,0,0,1-2.17-.88,3,3,0,0,1-.83-2.12A3.07,3.07,0,0,1,170,29.8a2.54,2.54,0,0,1,2-.85,2.36,2.36,0,0,1,1.76.68,2.32,2.32,0,0,1,.67,1.69,2,2,0,0,1,0,.46H169.9v.13a2.44,2.44,0,0,0,.65,1.74,2.19,2.19,0,0,0,1.68.69,2.12,2.12,0,0,0,1.83-.93ZM172,29.52a2,2,0,0,0-1.32.46,2.15,2.15,0,0,0-.69,1.28h3.79a1.76,1.76,0,0,0-.5-1.24A1.71,1.71,0,0,0,172,29.52Z"/><path class="cls-1" d="M175.48,34l.49-.4a1.83,1.83,0,0,0,1.49.78,1.21,1.21,0,0,0,.84-.29,1,1,0,0,0,.3-.74.79.79,0,0,0-.29-.64,2.17,2.17,0,0,0-.71-.43l-.84-.35a1.87,1.87,0,0,1-.71-.57,1.35,1.35,0,0,1-.29-.9,1.41,1.41,0,0,1,.47-1.06,1.76,1.76,0,0,1,1.23-.44,2.07,2.07,0,0,1,1.76.89l-.48.39a1.46,1.46,0,0,0-1.27-.72,1.11,1.11,0,0,0-.79.27.88.88,0,0,0-.29.67.85.85,0,0,0,.3.66,2.19,2.19,0,0,0,.71.44l.84.36a1.8,1.8,0,0,1,.71.54,1.27,1.27,0,0,1,.29.87,1.47,1.47,0,0,1-.5,1.16,1.82,1.82,0,0,1-1.27.46A2.41,2.41,0,0,1,175.48,34Z"/><path class="cls-1" d="M184.18,34.06a3.2,3.2,0,0,1,0-4.23,2.64,2.64,0,0,1,2.06-.88,2.57,2.57,0,0,1,2.12,1v-3.5H189v8.25h-.65v-.79a2.56,2.56,0,0,1-2.12,1A2.68,2.68,0,0,1,184.18,34.06Zm.51-3.81a2.58,2.58,0,0,0,0,3.38,2.1,2.1,0,0,0,1.6.69,2.46,2.46,0,0,0,1.2-.3,2.24,2.24,0,0,0,.87-.86V30.72a2.27,2.27,0,0,0-2.07-1.15A2.12,2.12,0,0,0,184.69,30.25Z"/><path class="cls-1" d="M196,33.8a2.7,2.7,0,0,1-2.33,1.14,2.85,2.85,0,0,1-2.16-.88,3,3,0,0,1-.83-2.12,3.06,3.06,0,0,1,.76-2.14,2.56,2.56,0,0,1,2-.85,2.37,2.37,0,0,1,1.76.68,2.32,2.32,0,0,1,.67,1.69,2,2,0,0,1,0,.46h-4.48v.13a2.44,2.44,0,0,0,.65,1.74,2.19,2.19,0,0,0,1.67.69,2.13,2.13,0,0,0,1.84-.93Zm-2.57-4.28a2,2,0,0,0-1.32.46,2.15,2.15,0,0,0-.69,1.28h3.79a1.76,1.76,0,0,0-.5-1.24A1.73,1.73,0,0,0,193.4,29.52Z"/><path class="cls-1" d="M196.9,34l.48-.4a1.85,1.85,0,0,0,1.5.78,1.16,1.16,0,0,0,.83-.29,1,1,0,0,0,.31-.74.82.82,0,0,0-.29-.64,2.17,2.17,0,0,0-.71-.43l-.84-.35a2,2,0,0,1-.72-.57,1.41,1.41,0,0,1-.29-.9,1.39,1.39,0,0,1,.48-1.06,1.76,1.76,0,0,1,1.23-.44,2.08,2.08,0,0,1,1.76.89l-.49.39a1.43,1.43,0,0,0-1.26-.72,1.1,1.1,0,0,0-.79.27.91.91,0,0,0,0,1.33,2.24,2.24,0,0,0,.72.44l.84.36a1.87,1.87,0,0,1,.71.54,1.32,1.32,0,0,1,.29.87,1.51,1.51,0,0,1-.5,1.16,1.85,1.85,0,0,1-1.27.46A2.41,2.41,0,0,1,196.9,34Z"/><path class="cls-1" d="M205.5,34.71V27h3.92v.62H206.2v2.86H209v.61H206.2v3h3.22v.61Z"/><path class="cls-1" d="M211.27,34.71V29.17h.65v.74a2.27,2.27,0,0,1,1.87-1,2.17,2.17,0,0,1,1.15.3,1.77,1.77,0,0,1,.72.89A2.37,2.37,0,0,1,217.72,29a2,2,0,0,1,1.5.59,2.32,2.32,0,0,1,.57,1.67v3.5h-.64V31.23a1.74,1.74,0,0,0-.41-1.23,1.47,1.47,0,0,0-1.11-.43,2,2,0,0,0-1.8,1.18,3.44,3.44,0,0,1,0,.46v3.5h-.65V31.23a1.74,1.74,0,0,0-.4-1.23,1.45,1.45,0,0,0-1.11-.43,1.94,1.94,0,0,0-1.78,1.16v4Z"/><path class="cls-1" d="M221.85,37.42V29.17h.64V30a2.61,2.61,0,0,1,2.13-1,2.68,2.68,0,0,1,2.07.88,3.2,3.2,0,0,1,0,4.23,2.71,2.71,0,0,1-2.07.88,2.59,2.59,0,0,1-2.13-1v3.5Zm2.71-7.85a2.58,2.58,0,0,0-1.19.29,2.31,2.31,0,0,0-.88.85v2.46a2.32,2.32,0,0,0,2.07,1.15,2.07,2.07,0,0,0,1.61-.69,2.58,2.58,0,0,0,0-3.38A2.1,2.1,0,0,0,224.56,29.57Z"/><path class="cls-1" d="M229.14,34.71V26.46h.65v8.25Z"/><path class="cls-1" d="M232.28,29.84a3,3,0,0,1,4.28,0,3.06,3.06,0,0,1,0,4.21,3,3,0,0,1-4.28,0,3.08,3.08,0,0,1,0-4.21Zm2.15,4.48a2.12,2.12,0,0,0,1.62-.71,2.44,2.44,0,0,0,0-3.34,2.11,2.11,0,0,0-1.62-.7,2.16,2.16,0,0,0-1.65.7,2.37,2.37,0,0,0-.66,1.67,2.33,2.33,0,0,0,.66,1.67A2.17,2.17,0,0,0,234.43,34.32Z"/><path class="cls-1" d="M239.73,27.28a.48.48,0,0,1-.35.14.52.52,0,0,1-.36-.14.47.47,0,0,1-.15-.35.43.43,0,0,1,.15-.34.49.49,0,0,1,.36-.15.45.45,0,0,1,.35.15.42.42,0,0,1,.14.34A.46.46,0,0,1,239.73,27.28Zm-.68,7.43V29.17h.65v5.54Z"/><path class="cls-1" d="M241.19,34l.49-.4a1.85,1.85,0,0,0,1.5.78,1.16,1.16,0,0,0,.83-.29,1,1,0,0,0,.31-.74.82.82,0,0,0-.29-.64,2.28,2.28,0,0,0-.71-.43l-.84-.35a1.9,1.9,0,0,1-.72-.57,1.41,1.41,0,0,1-.29-.9,1.39,1.39,0,0,1,.48-1.06,1.76,1.76,0,0,1,1.23-.44,2.08,2.08,0,0,1,1.76.89l-.49.39a1.44,1.44,0,0,0-1.26-.72,1.12,1.12,0,0,0-.8.27.92.92,0,0,0,0,1.33,2.19,2.19,0,0,0,.71.44l.85.36a2,2,0,0,1,.71.54,1.32,1.32,0,0,1,.29.87,1.51,1.51,0,0,1-.5,1.16,1.85,1.85,0,0,1-1.27.46A2.43,2.43,0,0,1,241.19,34Z"/><path class="cls-1" d="M254.42,33.8a2.71,2.71,0,0,1-2.33,1.14,2.89,2.89,0,0,1-2.17-.88,3,3,0,0,1-.83-2.12,3.07,3.07,0,0,1,.77-2.14,2.54,2.54,0,0,1,2-.85,2.36,2.36,0,0,1,1.76.68,2.32,2.32,0,0,1,.67,1.69,2,2,0,0,1,0,.46h-4.48v.13a2.44,2.44,0,0,0,.65,1.74,2.21,2.21,0,0,0,1.68.69,2.12,2.12,0,0,0,1.83-.93Zm-2.58-4.28a2,2,0,0,0-1.32.46,2.15,2.15,0,0,0-.69,1.28h3.79a1.76,1.76,0,0,0-.5-1.24A1.71,1.71,0,0,0,251.84,29.52Z"/><path class="cls-1" d="M256,34.71V29.17h.65v.76a2.43,2.43,0,0,1,2-1,2.1,2.1,0,0,1,1.58.62,2.43,2.43,0,0,1,.6,1.75v3.39h-.65V31.34a1.84,1.84,0,0,0-.44-1.31,1.53,1.53,0,0,0-1.18-.46,2.14,2.14,0,0,0-1.89,1.16v4Z"/><path class="cls-1" d="M266,34.71V27h1.85a2.52,2.52,0,0,1,1.74.57,1.93,1.93,0,0,1,.64,1.52A2,2,0,0,1,269,31l2.51,3.7h-.84l-2.35-3.56a3,3,0,0,1-.38,0h-1.14v3.54Zm1.87-7.08h-1.16v2.93h1.16a1.69,1.69,0,0,0,1.19-.39,1.37,1.37,0,0,0,.43-1.09A1.33,1.33,0,0,0,269.1,28,1.69,1.69,0,0,0,267.91,27.63Z"/><path class="cls-1" d="M272.91,34.71V27h3.91v.62h-3.21v2.86h2.77v.61h-2.77v3h3.21v.61Z"/><path class="cls-1" d="M278,35.74a1.74,1.74,0,0,1,.86-1.44.91.91,0,0,1-.41-.78,1.2,1.2,0,0,1,.69-1.06,1.82,1.82,0,0,1-.78-1.55,1.88,1.88,0,0,1,.59-1.39,2,2,0,0,1,1.51-.58,2.47,2.47,0,0,1,1,.23h2.08v.57h-1.39a1.91,1.91,0,0,1,.38,1.17A1.87,1.87,0,0,1,282,32.3a2.08,2.08,0,0,1-1.53.58,2.55,2.55,0,0,1-.89-.17.84.84,0,0,0-.5.71c0,.3.17.45.52.45h1.7a2.46,2.46,0,0,1,1.6.44,1.48,1.48,0,0,1,.53,1.21,1.68,1.68,0,0,1-.77,1.4,3.45,3.45,0,0,1-2,.54,3.55,3.55,0,0,1-1.92-.46A1.42,1.42,0,0,1,278,35.74Zm.65-.06a1,1,0,0,0,.55.89,2.79,2.79,0,0,0,1.44.33,2.94,2.94,0,0,0,1.55-.36,1.11,1.11,0,0,0,.58-1c0-.73-.5-1.09-1.5-1.09h-1.84A1.49,1.49,0,0,0,278.64,35.68Zm1.82-3.35a1.37,1.37,0,0,0,1.46-1.42,1.4,1.4,0,0,0-.39-1,1.61,1.61,0,0,0-2.15,0,1.4,1.4,0,0,0-.39,1,1.37,1.37,0,0,0,1.47,1.42Z"/><path class="cls-1" d="M285.38,27.28a.48.48,0,0,1-.35.14.52.52,0,0,1-.36-.14.47.47,0,0,1-.15-.35.43.43,0,0,1,.15-.34.49.49,0,0,1,.36-.15.45.45,0,0,1,.35.15.42.42,0,0,1,.14.34A.46.46,0,0,1,285.38,27.28Zm-.68,7.43V29.17h.65v5.54Z"/><path class="cls-1" d="M287.85,29.84A2.78,2.78,0,0,1,290,29a2.84,2.84,0,0,1,2.14.89,3.06,3.06,0,0,1,0,4.21,2.84,2.84,0,0,1-2.14.89,2.78,2.78,0,0,1-2.13-.89,3.06,3.06,0,0,1,0-4.21ZM290,34.32a2.11,2.11,0,0,0,1.62-.71,2.44,2.44,0,0,0,0-3.34,2.1,2.1,0,0,0-1.62-.7,2.16,2.16,0,0,0-1.65.7,2.37,2.37,0,0,0-.66,1.67,2.33,2.33,0,0,0,.66,1.67A2.17,2.17,0,0,0,290,34.32Z"/><path class="cls-1" d="M294.61,34.71V29.17h.65v.76a2.43,2.43,0,0,1,2-1,2.12,2.12,0,0,1,1.58.62,2.43,2.43,0,0,1,.6,1.75v3.39h-.65V31.34a1.84,1.84,0,0,0-.44-1.31,1.56,1.56,0,0,0-1.18-.46,2.14,2.14,0,0,0-1.89,1.16v4Z"/><path class="cls-1" d="M303.47,31.59h3v.62h-3Z"/><path class="cls-1" d="M315.41,32.64a2.07,2.07,0,0,1-.74,1.65,2.73,2.73,0,0,1-1.87.65,3,3,0,0,1-2.7-1.46l.59-.37a2.29,2.29,0,0,0,2.1,1.2,2.08,2.08,0,0,0,1.38-.45,1.54,1.54,0,0,0,.54-1.25,1.67,1.67,0,0,0-.49-1.22,1.85,1.85,0,0,0-1.32-.47h-1.34v-.61h1.15a1.67,1.67,0,0,0,1.19-.41,1.4,1.4,0,0,0,.44-1.07,1.29,1.29,0,0,0-.43-1,1.67,1.67,0,0,0-1.13-.37A1.9,1.9,0,0,0,311,28.53l-.57-.35a2.62,2.62,0,0,1,2.35-1.39,2.36,2.36,0,0,1,1.62.56,1.81,1.81,0,0,1,.64,1.45,2,2,0,0,1-.29,1.05,2.07,2.07,0,0,1-.84.73,2.09,2.09,0,0,1,1.1.79A2.21,2.21,0,0,1,315.41,32.64Z"/><path class="cls-1" d="M317.07,27.31a1.76,1.76,0,0,1,1.32-.54,1.73,1.73,0,0,1,1.32.54,1.89,1.89,0,0,1,0,2.6,1.73,1.73,0,0,1-1.32.54,1.76,1.76,0,0,1-1.32-.54,1.91,1.91,0,0,1,0-2.6ZM318.4,30a1.18,1.18,0,0,0,.91-.4,1.34,1.34,0,0,0,.37-.95,1.37,1.37,0,0,0-.36-.95,1.22,1.22,0,0,0-.92-.39,1.24,1.24,0,0,0-.94.39,1.4,1.4,0,0,0,0,1.91A1.24,1.24,0,0,0,318.4,30Zm-.95,4.74,5.63-7.7h.7l-5.63,7.7Zm4.08-2.91a1.73,1.73,0,0,1,1.32-.54,1.76,1.76,0,0,1,1.32.54,1.82,1.82,0,0,1,.51,1.3,1.8,1.8,0,0,1-.51,1.29,1.76,1.76,0,0,1-1.32.54,1.73,1.73,0,0,1-1.32-.54,1.77,1.77,0,0,1-.52-1.29A1.79,1.79,0,0,1,321.53,31.79Zm1.33,2.65a1.18,1.18,0,0,0,.91-.4,1.39,1.39,0,0,0,.36-.95,1.36,1.36,0,0,0-.36-1,1.2,1.2,0,0,0-.91-.4,1.24,1.24,0,0,0-.94.4,1.3,1.3,0,0,0-.37,1,1.32,1.32,0,0,0,.37.95A1.22,1.22,0,0,0,322.86,34.44Z"/></g></g></svg>